<!-- Generated with GitHub Copilot -->
<svg width="64" height="64" viewBox="0 0 200 200" xmlns="http://www.w3.org/2000/svg">
  <defs>
    <linearGradient id="cardGradient" x1="0%" y1="0%" x2="100%" y2="100%">
      <stop offset="0%" style="stop-color:#5D9CEC;stop-opacity:1" />
      <stop offset="100%" style="stop-color:#4A81D4;stop-opacity:1" />
    </linearGradient>
    <filter id="dropShadow" x="-20%" y="-20%" width="140%" height="140%">
      <feGaussianBlur in="SourceAlpha" stdDeviation="3"/>
      <feOffset dx="2" dy="2" result="offsetblur"/>
      <feComponentTransfer>
        <feFuncA type="linear" slope="0.5"/>
      </feComponentTransfer>
      <feMerge> 
        <feMergeNode/>
        <feMergeNode in="SourceGraphic"/> 
      </feMerge>
    </filter>
  </defs>

  <!-- Card Body with Gradient and Shadow -->
  <rect 
    x="20" y="50" 
    width="160" height="100" 
    rx="20" ry="20" 
    fill="url(#cardGradient)" 
    filter="url(#dropShadow)"
  />

  <!-- Enhanced Chip -->
  <rect x="40" y="70" width="40" height="30" rx="5" ry="5" fill="#FAD02E"/>
  <line x1="45" y1="78" x2="75" y2="78" stroke="#E0A800" stroke-width="2"/>
  <line x1="45" y1="88" x2="75" y2="88" stroke="#E0A800" stroke-width="2"/>
  <line x1="53" y1="70" x2="53" y2="100" stroke="#E0A800" stroke-width="2"/>
   <line x1="67" y1="70" x2="67" y2="100" stroke="#E0A800" stroke-width="2"/>


  <!-- Abstract lines representing text/design -->
  <line x1="40" y1="120" x2="100" y2="120" stroke="#FFFFFF" stroke-width="3" stroke-opacity="0.7"/>
  <line x1="40" y1="130" x2="120" y2="130" stroke="#FFFFFF" stroke-width="3" stroke-opacity="0.7"/>

  <!-- More detailed Contactless Payment Symbol -->
  <g transform="translate(135, 100) scale(0.9)">
    <path d="M0 -25
             A25 25 0 0 1 0 25" 
          stroke="#FFFFFF" stroke-width="6" fill="none" stroke-linecap="round"/>
    <path d="M0 -15
             A15 15 0 0 1 0 15" 
          stroke="#FFFFFF" stroke-width="5" fill="none" stroke-linecap="round"/>
    <path d="M0 -5
             A5 5 0 0 1 0 5" 
          stroke="#FFFFFF" stroke-width="4" fill="none" stroke-linecap="round"/>
  </g>
</svg>